<?xml version="1.0" standalone="no"?>
<!DOCTYPE svg PUBLIC "-//W3C//DTD SVG 20010904//EN"
 "http://www.w3.org/TR/2001/REC-SVG-20010904/DTD/svg10.dtd">
<svg version="1.0" xmlns="http://www.w3.org/2000/svg"
 width="225.000000pt" height="225.000000pt" viewBox="0 0 225.000000 225.000000"
 preserveAspectRatio="xMidYMid meet">

<g transform="translate(0.000000,225.000000) scale(0.100000,-0.100000)"
fill="#000000" stroke="none">
<path d="M1050 2243 c-155 -14 -305 -55 -422 -114 -292 -147 -507 -413 -587
-724 -109 -420 34 -861 370 -1141 140 -116 301 -195 483 -236 110 -25 305 -29
416 -9 467 83 825 435 917 900 24 122 22 319 -5 437 -94 419 -412 750 -818
854 -71 18 -253 42 -298 38 -11 0 -37 -3 -56 -5z m720 -647 c0 -3 -69 -63
-152 -134 -84 -72 -229 -195 -322 -276 -144 -124 -172 -144 -185 -133 -9 6
-68 57 -132 112 -64 55 -202 174 -307 264 -106 91 -192 166 -192 168 0 2 290
3 645 3 355 0 645 -2 645 -4z m-1137 -203 c106 -90 216 -185 245 -210 44 -37
51 -47 41 -60 -18 -21 -486 -423 -493 -423 -3 0 -6 196 -6 436 0 302 3 433 11
429 5 -4 96 -81 202 -172z m1193 -691 c-4 -3 -188 149 -216 178 -3 3 -67 58
-142 123 -75 64 -139 121 -142 126 -3 5 108 106 247 225 l252 217 3 -432 c1
-238 0 -434 -2 -437z m-746 308 c19 -16 40 -30 46 -30 6 0 42 26 80 59 l69 58
90 -76 c50 -41 126 -107 171 -146 44 -38 120 -104 169 -145 l88 -75 -337 -3
c-186 -1 -486 -1 -668 0 l-330 3 259 221 258 222 35 -29 c19 -16 51 -42 70
-59z"/>
</g>
</svg>
