<?xml version="1.0" standalone="no"?>
<!DOCTYPE svg PUBLIC "-//W3C//DTD SVG 20010904//EN"
 "http://www.w3.org/TR/2001/REC-SVG-20010904/DTD/svg10.dtd">
<svg version="1.0" xmlns="http://www.w3.org/2000/svg"
 width="256.000000pt" height="256.000000pt" viewBox="0 0 256.000000 256.000000"
 preserveAspectRatio="xMidYMid meet">

<g transform="translate(0.000000,256.000000) scale(0.100000,-0.100000)"
fill="#000000" stroke="none">
<path d="M1116 2519 c-547 -76 -978 -478 -1093 -1022 -22 -103 -24 -367 -4
-477 19 -106 63 -236 115 -340 150 -299 407 -528 714 -636 48 -17 56 -17 80
-3 27 15 27 15 30 150 l3 135 -118 1 c-190 1 -245 31 -318 173 -43 83 -63 107
-153 189 -39 35 -40 49 -7 57 70 18 161 -35 235 -137 27 -38 69 -81 92 -96 37
-25 50 -28 122 -27 111 1 147 17 163 75 6 24 23 61 37 82 14 21 26 40 26 42 0
3 -15 5 -32 5 -61 0 -190 40 -271 83 -176 93 -266 263 -269 509 -2 150 22 233
95 335 28 40 29 44 18 87 -16 63 -14 147 6 227 l16 69 37 0 c50 0 136 -31 238
-85 l85 -46 81 18 c112 24 360 24 473 0 l82 -18 68 38 c110 62 173 86 233 87
l55 1 16 -60 c21 -72 23 -168 7 -229 -11 -43 -11 -47 19 -88 73 -103 97 -186
95 -335 -2 -188 -58 -341 -158 -432 -90 -82 -278 -161 -385 -161 -16 0 -29 -2
-29 -5 0 -2 11 -21 25 -41 42 -62 48 -99 54 -347 6 -221 7 -240 25 -253 28
-20 44 -18 141 21 234 95 444 267 581 476 254 388 283 874 78 1279 -178 352
-495 598 -879 681 -106 23 -328 32 -429 18z"/>
</g>
</svg>
