<?xml version="1.0" standalone="no"?>
<!DOCTYPE svg PUBLIC "-//W3C//DTD SVG 20010904//EN"
 "http://www.w3.org/TR/2001/REC-SVG-20010904/DTD/svg10.dtd">
<svg version="1.0" xmlns="http://www.w3.org/2000/svg"
 width="2500.000000pt" height="2500.000000pt" viewBox="0 0 2500.000000 2500.000000"
 preserveAspectRatio="xMidYMid meet">

<g transform="translate(0.000000,2500.000000) scale(0.100000,-0.100000)"
fill="#000000" stroke="none">
<path d="M12098 24989 c-125 -4 -293 -12 -375 -18 -238 -17 -512 -41 -593 -51
-41 -5 -95 -12 -120 -15 -253 -31 -560 -74 -571 -80 -4 -3 -27 -7 -50 -10 -24
-3 -75 -12 -114 -20 -38 -7 -90 -16 -115 -20 -25 -3 -94 -17 -155 -31 -60 -13
-144 -31 -185 -40 -112 -22 -399 -92 -535 -129 -66 -19 -140 -39 -165 -45 -25
-6 -52 -14 -60 -17 -8 -3 -20 -7 -26 -8 -56 -13 -437 -131 -544 -170 -36 -13
-92 -33 -125 -43 -79 -26 -252 -89 -290 -106 -16 -7 -57 -23 -90 -36 -94 -35
-207 -80 -242 -96 -17 -8 -38 -14 -46 -14 -9 0 -17 -4 -19 -8 -1 -5 -39 -23
-83 -40 -44 -17 -98 -40 -120 -50 -35 -17 -81 -38 -160 -72 -130 -55 -769
-381 -853 -434 -23 -14 -44 -26 -47 -26 -4 0 -70 -37 -148 -82 -78 -46 -150
-87 -159 -93 -350 -203 -806 -513 -1213 -824 -82 -63 -152 -117 -155 -121 -3
-3 -25 -21 -50 -40 -25 -19 -64 -50 -86 -69 -23 -20 -70 -59 -105 -88 -35 -28
-73 -60 -84 -70 -11 -10 -54 -47 -95 -83 -41 -36 -80 -69 -86 -75 -6 -5 -42
-37 -80 -70 -160 -140 -661 -633 -818 -805 -38 -41 -85 -93 -105 -115 -132
-144 -341 -390 -510 -600 -62 -77 -352 -462 -403 -535 -24 -36 -73 -105 -107
-153 -34 -49 -59 -93 -55 -98 3 -5 1 -8 -4 -7 -9 3 -197 -271 -246 -357 -9
-17 -43 -73 -76 -125 -85 -138 -290 -497 -290 -509 0 -5 -4 -11 -9 -13 -11 -3
-306 -584 -366 -718 -52 -116 -92 -205 -121 -266 -13 -28 -24 -54 -24 -59 0
-4 -13 -35 -28 -69 -16 -33 -50 -115 -76 -181 -26 -66 -63 -158 -81 -205 -101
-253 -311 -879 -339 -1010 -2 -8 -6 -22 -9 -30 -13 -31 -79 -280 -112 -425
-20 -82 -40 -163 -46 -180 -11 -34 -94 -429 -103 -490 -7 -45 -30 -175 -51
-280 -7 -38 -20 -119 -29 -180 -31 -225 -47 -341 -52 -390 -2 -27 -9 -84 -14
-125 -11 -89 -16 -143 -29 -310 -6 -69 -15 -181 -20 -250 -23 -284 -32 -785
-21 -1162 6 -204 13 -374 15 -377 2 -4 6 -49 9 -101 3 -52 8 -120 11 -150 3
-30 7 -91 10 -135 18 -250 76 -697 131 -1005 20 -107 40 -222 45 -255 17 -105
136 -630 175 -770 7 -27 32 -117 54 -200 106 -388 333 -1063 433 -1285 11 -25
31 -74 44 -109 26 -68 72 -176 189 -436 131 -294 358 -737 510 -996 35 -61 64
-112 64 -115 0 -2 32 -55 70 -118 39 -62 70 -118 70 -124 0 -6 4 -12 9 -14 4
-1 34 -45 65 -96 70 -113 161 -253 175 -269 6 -7 11 -15 11 -18 0 -3 12 -23
28 -44 15 -21 33 -47 39 -57 25 -38 152 -219 160 -229 5 -5 24 -32 43 -60 18
-27 36 -52 39 -55 3 -3 53 -68 111 -145 96 -129 312 -402 384 -486 17 -19 40
-46 51 -60 117 -140 213 -249 389 -439 104 -112 503 -516 565 -571 27 -24 84
-78 128 -119 80 -76 124 -116 229 -205 32 -27 97 -84 144 -125 99 -86 128
-110 260 -215 52 -42 105 -85 116 -95 22 -18 235 -179 374 -282 119 -87 430
-302 513 -353 66 -40 212 -135 223 -144 6 -5 29 -19 50 -30 47 -25 77 -44 84
-52 3 -3 32 -20 65 -38 33 -19 62 -37 65 -40 3 -4 16 -12 30 -18 14 -7 48 -26
75 -43 28 -16 57 -33 65 -37 8 -4 60 -32 115 -63 187 -106 513 -274 725 -373
189 -88 362 -167 367 -167 3 0 19 -6 36 -14 65 -30 185 -80 282 -117 55 -22
109 -44 120 -49 11 -5 63 -25 115 -44 295 -108 411 -148 560 -195 91 -29 183
-58 205 -66 22 -8 65 -21 95 -29 30 -8 96 -26 145 -41 235 -69 687 -177 980
-235 837 -163 1589 -235 2460 -233 1081 2 2064 127 3095 394 342 89 773 218
950 285 19 7 127 47 240 88 221 81 379 142 450 174 25 11 106 45 180 77 74 31
167 71 205 89 39 18 108 51 155 72 104 47 499 246 595 300 126 69 169 93 229
125 33 17 71 39 85 49 14 9 76 46 136 81 208 120 603 374 835 538 97 68 536
396 550 411 3 3 25 21 50 40 25 19 50 39 56 45 6 5 30 26 54 45 583 470 1203
1085 1719 1705 115 139 112 135 151 185 19 25 37 47 40 50 22 21 362 478 445
600 184 267 334 499 459 710 54 91 113 190 131 220 18 30 42 73 54 95 12 22
32 58 44 80 90 159 293 555 366 715 19 41 51 111 72 155 20 44 63 141 94 215
32 74 66 155 77 180 88 195 286 746 382 1059 237 772 386 1470 476 2236 59
500 83 931 83 1465 1 615 -31 1102 -109 1690 -42 318 -130 806 -194 1075 -15
66 -34 145 -40 175 -16 72 -115 447 -140 530 -108 360 -227 719 -287 870 -6
14 -23 59 -37 100 -42 117 -131 336 -196 485 -5 11 -33 76 -63 145 -88 202
-348 736 -377 775 -4 6 -27 48 -51 95 -24 47 -63 118 -86 158 -24 40 -43 77
-43 82 0 5 -6 15 -12 22 -13 13 -29 40 -65 108 -10 19 -21 37 -24 40 -4 3 -21
32 -40 65 -18 33 -48 81 -65 108 -18 26 -36 56 -39 67 -4 11 -11 20 -16 20 -5
0 -9 4 -9 10 0 5 -24 45 -52 89 -29 43 -65 99 -80 123 -25 41 -102 155 -250
369 -119 174 -418 564 -591 773 -85 104 -331 386 -395 455 -19 20 -63 68 -99
106 -269 289 -616 622 -968 930 -38 33 -73 65 -79 70 -36 35 -454 369 -571
456 -77 57 -142 106 -145 110 -3 3 -27 21 -55 39 -27 19 -54 38 -60 42 -11 10
-199 141 -229 161 -10 6 -36 24 -57 40 -21 15 -41 27 -44 27 -3 0 -11 5 -18
11 -15 12 -137 93 -267 174 -52 33 -96 63 -98 67 -2 4 -8 8 -13 8 -5 0 -42 20
-82 44 -39 24 -85 51 -102 60 -16 9 -43 25 -60 36 -16 11 -43 26 -60 34 -16 9
-44 24 -60 33 -92 55 -132 77 -250 140 -134 73 -481 248 -595 301 -138 64
-222 102 -226 102 -2 0 -32 13 -67 30 -72 34 -344 150 -353 150 -3 0 -20 7
-37 15 -64 29 -520 197 -612 224 -22 7 -49 16 -60 21 -11 5 -65 23 -120 40
-55 18 -118 38 -140 45 -49 17 -270 82 -345 102 -160 43 -220 58 -380 98 -96
24 -220 53 -275 65 -55 11 -129 28 -165 37 -36 8 -101 21 -145 29 -44 7 -138
24 -210 38 -168 32 -658 102 -850 121 -288 29 -702 56 -990 65 -324 10 -420
10 -747 -1z m-1231 -125 c-3 -3 -12 -4 -19 -1 -8 3 -5 6 6 6 11 1 17 -2 13 -5z
m-1530 -300 c-3 -3 -12 -4 -19 -1 -8 3 -5 6 6 6 11 1 17 -2 13 -5z m-82 -24
c-3 -5 -12 -10 -18 -10 -7 0 -6 4 3 10 19 12 23 12 15 0z m-3985 -1884 c0 -3
-4 -8 -10 -11 -5 -3 -10 -1 -10 4 0 6 5 11 10 11 6 0 10 -2 10 -4z m-570 -436
c0 -5 -5 -10 -11 -10 -5 0 -7 5 -4 10 3 6 8 10 11 10 2 0 4 -4 4 -10z m3417
-2494 c133 -28 275 -77 395 -137 79 -39 235 -142 298 -195 44 -37 186 -179
224 -223 62 -73 160 -228 210 -335 229 -481 216 -1035 -36 -1506 -44 -81 -125
-201 -179 -265 -74 -86 -225 -230 -279 -263 -14 -9 -27 -19 -30 -22 -31 -34
-226 -140 -341 -185 -212 -84 -354 -109 -604 -110 -162 0 -206 3 -300 23 -248
53 -415 123 -607 252 -405 273 -666 720 -708 1215 -37 429 84 833 352 1179 27
35 187 197 238 242 19 17 55 44 80 60 25 16 47 32 50 35 13 18 236 132 318
164 97 37 262 80 367 95 33 5 143 7 245 5 150 -3 208 -8 307 -29z m8375 -4136
c261 -18 432 -43 658 -97 376 -89 679 -220 990 -428 130 -88 145 -99 294 -231
174 -155 357 -375 489 -591 98 -159 233 -439 271 -559 8 -27 24 -74 35 -104
96 -257 182 -710 211 -1105 6 -90 10 -1186 10 -3082 l0 -2943 -1365 0 -1364 0
-4 2463 c-3 1744 -7 2493 -15 2567 -45 414 -127 710 -261 948 -23 39 -41 76
-41 81 0 5 -4 11 -8 13 -5 2 -24 25 -42 53 -53 77 -216 236 -304 295 -192 128
-418 201 -688 220 -148 11 -330 3 -475 -20 -179 -29 -401 -108 -543 -193 -54
-33 -162 -108 -180 -127 -3 -3 -23 -20 -45 -39 -77 -67 -255 -289 -255 -320 0
-5 -4 -11 -9 -13 -14 -5 -125 -243 -154 -328 -51 -150 -86 -300 -114 -485 -16
-100 -18 -330 -23 -2610 l-5 -2500 -1317 -3 -1318 -2 0 4440 0 4440 1318 -2
1317 -3 0 -583 c0 -320 3 -582 7 -582 4 0 10 9 13 20 3 11 11 20 16 20 5 0 9
4 9 10 0 22 146 217 256 342 62 70 235 240 293 288 29 25 59 50 65 55 22 21
172 133 216 161 25 16 47 31 50 35 33 37 385 221 555 290 418 167 945 243
1457 209z m-7322 -4700 l0 -4440 -1375 -2 -1375 -3 -2 4443 -3 4442 1378 0
1377 0 0 -4440z"/>
</g>
</svg>
